<svg width="208" height="40" viewBox="0 0 208 40" fill="none" xmlns="http://www.w3.org/2000/svg">
<path d="M34.1422 5.85781C30.3647 2.08031 25.3422 0 20 0C14.6578 0 9.63531 2.08031 5.85781 5.85781C2.08031 9.63531 0 14.6578 0 20C0 25.3422 2.08039 30.3646 5.85781 34.1422C9.63523 37.9198 14.6578 40 20 40C25.3422 40 30.3647 37.9197 34.1422 34.1422C37.9197 30.3647 40 25.3422 40 20C40 14.6578 37.9196 9.63539 34.1422 5.85781Z" fill="#33CC95"/>
<g clip-path="url(#clip0_35212_417)">
<path d="M20.5714 8V33.1429" stroke="white" stroke-width="2" stroke-linecap="round" stroke-linejoin="round"/>
<path d="M26.2857 12.5714H17.7143C16.6534 12.5714 15.636 12.9929 14.8859 13.743C14.1357 14.4931 13.7143 15.5106 13.7143 16.5714C13.7143 17.6323 14.1357 18.6497 14.8859 19.3999C15.636 20.15 16.6534 20.5714 17.7143 20.5714H23.4286C24.4894 20.5714 25.5069 20.9929 26.257 21.743C27.0072 22.4932 27.4286 23.5106 27.4286 24.5714C27.4286 25.6323 27.0072 26.6497 26.257 27.3999C25.5069 28.15 24.4894 28.5714 23.4286 28.5714H13.7143" stroke="white" stroke-width="2" stroke-linecap="round" stroke-linejoin="round"/>
</g>
<path d="M56.8232 21.352C56.8232 19.976 57.1033 18.776 57.6633 17.752C58.2233 16.712 58.9993 15.912 59.9913 15.352C60.9833 14.776 62.1193 14.488 63.3993 14.488C65.0473 14.488 66.4073 14.904 67.4793 15.736C68.5673 16.552 69.2953 17.704 69.6633 19.192H66.0393C65.8473 18.616 65.5193 18.168 65.0553 17.848C64.6073 17.512 64.0473 17.344 63.3753 17.344C62.4153 17.344 61.6553 17.696 61.0953 18.4C60.5353 19.088 60.2553 20.072 60.2553 21.352C60.2553 22.616 60.5353 23.6 61.0953 24.304C61.6553 24.992 62.4153 25.336 63.3753 25.336C64.7353 25.336 65.6233 24.728 66.0393 23.512H69.6633C69.2953 24.952 68.5673 26.096 67.4793 26.944C66.3913 27.792 65.0313 28.216 63.3993 28.216C62.1193 28.216 60.9833 27.936 59.9913 27.376C58.9993 26.8 58.2233 26 57.6633 24.976C57.1033 23.936 56.8232 22.728 56.8232 21.352ZM71.2607 21.304C71.2607 19.96 71.5247 18.768 72.0527 17.728C72.5968 16.688 73.3248 15.888 74.2368 15.328C75.1648 14.768 76.1968 14.488 77.3328 14.488C78.3248 14.488 79.1888 14.688 79.9248 15.088C80.6768 15.488 81.2768 15.992 81.7248 16.6V14.704H85.1088V28H81.7248V26.056C81.2928 26.68 80.6928 27.2 79.9248 27.616C79.1728 28.016 78.3008 28.216 77.3088 28.216C76.1888 28.216 75.1648 27.928 74.2368 27.352C73.3248 26.776 72.5968 25.968 72.0527 24.928C71.5247 23.872 71.2607 22.664 71.2607 21.304ZM81.7248 21.352C81.7248 20.536 81.5648 19.84 81.2448 19.264C80.9248 18.672 80.4928 18.224 79.9488 17.92C79.4048 17.6 78.8208 17.44 78.1968 17.44C77.5728 17.44 76.9968 17.592 76.4688 17.896C75.9408 18.2 75.5088 18.648 75.1728 19.24C74.8528 19.816 74.6928 20.504 74.6928 21.304C74.6928 22.104 74.8528 22.808 75.1728 23.416C75.5088 24.008 75.9408 24.464 76.4688 24.784C77.0128 25.104 77.5888 25.264 78.1968 25.264C78.8208 25.264 79.4048 25.112 79.9488 24.808C80.4928 24.488 80.9248 24.04 81.2448 23.464C81.5648 22.872 81.7248 22.168 81.7248 21.352ZM93.4784 28.216C92.3904 28.216 91.4144 28.024 90.5504 27.64C89.6864 27.24 88.9984 26.704 88.4864 26.032C87.9904 25.36 87.7184 24.616 87.6704 23.8H91.0544C91.1184 24.312 91.3664 24.736 91.7984 25.072C92.2464 25.408 92.7984 25.576 93.4544 25.576C94.0944 25.576 94.5904 25.448 94.9424 25.192C95.3104 24.936 95.4944 24.608 95.4944 24.208C95.4944 23.776 95.2704 23.456 94.8224 23.248C94.3904 23.024 93.6944 22.784 92.7344 22.528C91.7424 22.288 90.9264 22.04 90.2864 21.784C89.6624 21.528 89.1184 21.136 88.6544 20.608C88.2064 20.08 87.9824 19.368 87.9824 18.472C87.9824 17.736 88.1904 17.064 88.6064 16.456C89.0384 15.848 89.6464 15.368 90.4304 15.016C91.2304 14.664 92.1664 14.488 93.2384 14.488C94.8224 14.488 96.0864 14.888 97.0304 15.688C97.9744 16.472 98.4944 17.536 98.5904 18.88H95.3744C95.3264 18.352 95.1024 17.936 94.7024 17.632C94.3184 17.312 93.7984 17.152 93.1424 17.152C92.5344 17.152 92.0624 17.264 91.7264 17.488C91.4064 17.712 91.2464 18.024 91.2464 18.424C91.2464 18.872 91.4704 19.216 91.9184 19.456C92.3664 19.68 93.0624 19.912 94.0064 20.152C94.9664 20.392 95.7584 20.64 96.3824 20.896C97.0064 21.152 97.5424 21.552 97.9904 22.096C98.4544 22.624 98.6944 23.328 98.7104 24.208C98.7104 24.976 98.4944 25.664 98.0624 26.272C97.6464 26.88 97.0384 27.36 96.2384 27.712C95.4544 28.048 94.5344 28.216 93.4784 28.216ZM108.957 14.512C109.965 14.512 110.861 14.736 111.645 15.184C112.429 15.616 113.037 16.264 113.469 17.128C113.917 17.976 114.141 19 114.141 20.2V28H110.781V20.656C110.781 19.6 110.517 18.792 109.989 18.232C109.461 17.656 108.741 17.368 107.829 17.368C106.901 17.368 106.165 17.656 105.621 18.232C105.093 18.792 104.829 19.6 104.829 20.656V28H101.469V10.24H104.829V16.36C105.261 15.784 105.837 15.336 106.557 15.016C107.277 14.68 108.077 14.512 108.957 14.512ZM122.19 21.352C122.19 19.976 122.47 18.776 123.03 17.752C123.59 16.712 124.366 15.912 125.358 15.352C126.35 14.776 127.486 14.488 128.766 14.488C130.414 14.488 131.774 14.904 132.846 15.736C133.934 16.552 134.662 17.704 135.03 19.192H131.406C131.214 18.616 130.886 18.168 130.422 17.848C129.974 17.512 129.414 17.344 128.742 17.344C127.782 17.344 127.022 17.696 126.462 18.4C125.902 19.088 125.622 20.072 125.622 21.352C125.622 22.616 125.902 23.6 126.462 24.304C127.022 24.992 127.782 25.336 128.742 25.336C130.102 25.336 130.99 24.728 131.406 23.512H135.03C134.662 24.952 133.934 26.096 132.846 26.944C131.758 27.792 130.398 28.216 128.766 28.216C127.486 28.216 126.35 27.936 125.358 27.376C124.366 26.8 123.59 26 123.03 24.976C122.47 23.936 122.19 22.728 122.19 21.352ZM143.396 28.216C142.116 28.216 140.964 27.936 139.94 27.376C138.916 26.8 138.108 25.992 137.516 24.952C136.94 23.912 136.652 22.712 136.652 21.352C136.652 19.992 136.948 18.792 137.54 17.752C138.148 16.712 138.972 15.912 140.012 15.352C141.052 14.776 142.212 14.488 143.492 14.488C144.772 14.488 145.932 14.776 146.972 15.352C148.012 15.912 148.828 16.712 149.42 17.752C150.028 18.792 150.332 19.992 150.332 21.352C150.332 22.712 150.02 23.912 149.396 24.952C148.788 25.992 147.956 26.8 146.9 27.376C145.86 27.936 144.692 28.216 143.396 28.216ZM143.396 25.288C144.004 25.288 144.572 25.144 145.1 24.856C145.644 24.552 146.076 24.104 146.396 23.512C146.716 22.92 146.876 22.2 146.876 21.352C146.876 20.088 146.54 19.12 145.868 18.448C145.212 17.76 144.404 17.416 143.444 17.416C142.484 17.416 141.676 17.76 141.02 18.448C140.38 19.12 140.06 20.088 140.06 21.352C140.06 22.616 140.372 23.592 140.996 24.28C141.636 24.952 142.436 25.288 143.396 25.288ZM160.165 14.512C161.749 14.512 163.029 15.016 164.005 16.024C164.981 17.016 165.469 18.408 165.469 20.2V28H162.109V20.656C162.109 19.6 161.845 18.792 161.317 18.232C160.789 17.656 160.069 17.368 159.157 17.368C158.229 17.368 157.493 17.656 156.949 18.232C156.421 18.792 156.157 19.6 156.157 20.656V28H152.797V14.704H156.157V16.36C156.605 15.784 157.173 15.336 157.861 15.016C158.565 14.68 159.333 14.512 160.165 14.512ZM172.576 17.464V23.896C172.576 24.344 172.68 24.672 172.888 24.88C173.112 25.072 173.48 25.168 173.992 25.168H175.552V28H173.44C170.608 28 169.192 26.624 169.192 23.872V17.464H167.608V14.704H169.192V11.416H172.576V14.704H175.552V17.464H172.576ZM181.329 16.768C181.761 16.064 182.321 15.512 183.009 15.112C183.713 14.712 184.513 14.512 185.409 14.512V18.04H184.521C183.465 18.04 182.665 18.288 182.121 18.784C181.593 19.28 181.329 20.144 181.329 21.376V28H177.969V14.704H181.329V16.768ZM193.576 28.216C192.296 28.216 191.144 27.936 190.12 27.376C189.096 26.8 188.288 25.992 187.696 24.952C187.12 23.912 186.832 22.712 186.832 21.352C186.832 19.992 187.128 18.792 187.72 17.752C188.328 16.712 189.152 15.912 190.192 15.352C191.232 14.776 192.392 14.488 193.672 14.488C194.952 14.488 196.112 14.776 197.152 15.352C198.192 15.912 199.008 16.712 199.6 17.752C200.208 18.792 200.512 19.992 200.512 21.352C200.512 22.712 200.2 23.912 199.576 24.952C198.968 25.992 198.136 26.8 197.08 27.376C196.04 27.936 194.872 28.216 193.576 28.216ZM193.576 25.288C194.184 25.288 194.752 25.144 195.28 24.856C195.824 24.552 196.256 24.104 196.576 23.512C196.896 22.92 197.056 22.2 197.056 21.352C197.056 20.088 196.72 19.12 196.048 18.448C195.392 17.76 194.584 17.416 193.624 17.416C192.664 17.416 191.856 17.76 191.2 18.448C190.56 19.12 190.24 20.088 190.24 21.352C190.24 22.616 190.552 23.592 191.176 24.28C191.816 24.952 192.616 25.288 193.576 25.288ZM206.336 10.24V28H202.976V10.24H206.336Z" fill="white"/>
<defs>
<clipPath id="clip0_35212_417">
<rect width="27.4286" height="27.4286" fill="white" transform="translate(6.85715 6.85714)"/>
</clipPath>
</defs>
</svg>
